<?xml version="1.0" encoding="utf-8"?>
<!-- Generator: Adobe Illustrator 21.0.2, SVG Export Plug-In . SVG Version: 6.00 Build 0)  -->
<svg version="1.1" xmlns="http://www.w3.org/2000/svg" xmlns:xlink="http://www.w3.org/1999/xlink" x="0px" y="0px"
	 viewBox="0 0 150 150" style="enable-background:new 0 0 150 150;" xml:space="preserve">
<style type="text/css">
	.st0{fill:#3F6EA2;}
	.st1{fill:#EEEEEE;}
</style>
<g id="background">
	<rect class="st0" width="150" height="150"/>
</g>
<g id="Laag_1">
	<g>
		<g>
			<path class="st1" d="M72.3,112.5c-3.5-10.2-6.7-20-7-31c-2.1,9.8-3.1,14.8-5.2,24.6c-0.5,2.3-0.6,3.7-0.2,4.2
				c0.5,0.8,1.4,1.1,2.7,1.1c0.5,0,0.7,0,1.2,0c-0.1,0.4-0.1,0.6-0.1,1c-4.9,0-7.3,0-12.1,0c0.1-0.4,0.2-0.6,0.3-1
				c0.5,0,0.7,0,1.2,0c1.5,0,2.6-0.5,3.4-1.4c0.5-0.6,1-1.9,1.5-4c2.3-9.6,3.5-14.4,5.8-24.1c0.4-1.6,0.6-2.8,0.6-3.5
				c0-0.5-0.1-1-0.4-1.3c-0.2-0.4-0.7-0.5-1.4-0.5c0.1-0.4,0.2-0.6,0.3-1c1.9,0,2.9,0,4.9,0c0.3,9.5,2.6,20.1,6.3,28.8
				c3.5-8.7,5.9-19.4,6.1-28.8c1.9,0,2.9,0,4.9,0c0.1,0.4,0.2,0.6,0.3,1c-0.2,0-0.4,0-0.6,0c-0.8,0-1.2,0.5-1.2,1.4
				c-0.1,0.6,0.2,1.9,0.7,4c2.3,9.6,3.5,14.4,5.8,24.1c0.5,2.3,1.1,3.7,1.7,4.2c0.8,0.8,1.9,1.1,3.3,1.1c0.5,0,0.7,0,1.2,0
				c0.1,0.4,0.2,0.6,0.3,1c-5.9,0-8.9,0-14.8,0c0-0.4-0.1-0.6-0.1-1c0.5,0,0.7,0,1.2,0c1.5,0,2.4-0.5,2.9-1.4c0.3-0.6,0.2-1.9-0.1-4
				c-1.7-9.8-2.6-14.8-4.3-24.6c-0.7,11-4.2,20.8-8.1,31C72.8,112.5,72.6,112.5,72.3,112.5z"/>
			<path class="st1" d="M62,129.8c9.8,0,14.7,0,24.4,0c-0.6-4.2-0.9-6.3-1.5-10.5c-0.3-1.9-0.6-3.1-0.9-3.7
				c-0.3-0.5-0.8-0.8-1.5-1.2c-1-0.4-2-0.7-3-0.7c-0.6,0-0.9,0-1.5,0c0-0.4,0-0.6-0.1-1c7.3,0,10.9,0,18.2,0c0.1,0.4,0.2,0.6,0.3,1
				c-0.6,0-0.9,0-1.5,0c-1,0-1.9,0.2-2.7,0.6c-0.6,0.3-1,0.7-1.1,1.3c-0.1,0.6,0,1.8,0.4,3.6c2.1,9.5,3.1,14.2,5.2,23.7
				c0.4,1.9,0.9,3.1,1.4,3.7c0.4,0.5,1.1,0.9,2.2,1.2c1.5,0.4,3,0.7,4.5,0.7c0.9,0,1.3,0,2.2,0c0.1,0.4,0.2,0.6,0.3,1
				c-11,0-16.4,0-27.4,0c0-0.4,0-0.6-0.1-1c0.9,0,1.3,0,2.2,0c2.6,0,4.4-0.4,5.5-1.3c0.7-0.6,0.9-2,0.6-4.2
				c-0.6-4.5-0.9-6.7-1.5-11.2c-10,0-15,0-25,0c-0.6,4.5-0.9,6.7-1.5,11.2c-0.2,1.9-0.2,3.1,0.1,3.7c0.2,0.5,0.8,0.8,1.8,1.2
				c1.3,0.4,2.7,0.7,4.2,0.7c0.9,0,1.4,0,2.3,0c0,0.4,0,0.6,0,1c-11,0-16.5,0-27.5,0c0.1-0.4,0.2-0.6,0.3-1c0.9,0,1.3,0,2.2,0
				c2.6,0,4.6-0.4,6-1.3c0.9-0.6,1.5-2,2-4.2c2.1-9.5,3.1-14.2,5.1-23.7c0.4-1.9,0.5-3.1,0.4-3.7c-0.1-0.5-0.5-0.9-1.1-1.2
				c-0.8-0.4-1.8-0.7-2.8-0.7c-0.6,0-0.9,0-1.5,0c0.1-0.4,0.2-0.6,0.3-1c7.3,0,10.9,0,18.2,0c0,0.4,0,0.6,0,1c-0.6,0-0.9,0-1.6,0
				c-1,0-2,0.2-3,0.6c-0.7,0.3-1.2,0.7-1.5,1.3c-0.3,0.6-0.6,1.8-0.9,3.6C62.9,123.5,62.6,125.6,62,129.8z"/>
		</g>
	</g>
	<g>
		<polygon class="st1" points="73.9,53.5 49.2,75.9 24.2,53.2 48.8,30.9 		"/>
		<polygon class="st1" points="123.7,53.7 99,76.1 73.9,53.5 98.6,31.1 		"/>
		<polygon class="st1" points="124.1,95.9 121,98.7 34.8,20.9 37.9,18.2 		"/>
		<polygon class="st1" points="117.1,17.1 30.8,95.5 27.6,92.6 114,14.3 		"/>
	</g>
</g>
</svg>
